# xmcd
#
# Track frame offsets: 
#        183
#        13693
#        28170
#        43088
#        55033
#        67978
#        78500
#        90240
#        102745
#        115198
#        128445
#        142330
#        151503
#        161735
#        174508
#        187860
#        201140
#        216965
#        228218
#        243908
#
# Disc length: 3395 seconds
#
# Revision: 4
# Processed by: cddbd v1.5.2PL0 Copyright (c) Steve Scherf et al.
# Submitted via: ExactAudioCopy v0.99pb5
#
DISCID=040d4114
DTITLE=Various Artist - The Classic Soul Years - 1967
DYEAR=1989
DGENRE=Soul
TTITLE0=Sly And The Family Stone - Dance to the music
TTITLE1=Walter Jackson - My ship is coming in
TTITLE2=Dells - O-O I love you
TTITLE3=Jimmy Lewis - The girl from Texas
TTITLE4=Laura Lee - Dirty man
TTITLE5=Brenton Wood - Gimme little sign
TTITLE6=Betty Harris - Can't last much longer
TTITLE7=O'Jays - Working on your case
TTITLE8=Gene Dozier - A hunk of funk
TTITLE9=Joe Tex - Show me
TTITLE10=Toussaint McCall - Nothing takes the place of you
TTITLE11=Little Richard - Money
TTITLE12=Jive Five - No more tears
TTITLE13=Big Mac - Rough dried woman
TTITLE14=Robert Knight - Everlasting love
TTITLE15=Jimmy Holiday - Everybody needs help
TTITLE16=Al Wilson - Do what you gotta do
TTITLE17=Homer Banks - 60 minutes of your love
TTITLE18=Sam Baker - I believe in you
TTITLE19=Esquires - Get on up
EXTD=Connoisseur Collection CSYR CD67 -1989- Made in England
EXTT0=
EXTT1=
EXTT2=
EXTT3=
EXTT4=
EXTT5=
EXTT6=
EXTT7=
EXTT8=
EXTT9=
EXTT10=
EXTT11=
EXTT12=
EXTT13=
EXTT14=
EXTT15=
EXTT16=
EXTT17=
EXTT18=
EXTT19=
PLAYORDER=
